<svg xmlns="http://www.w3.org/2000/svg" width="355.002" height="92.333" viewBox="0 0 355.002 92.333"><g transform="translate(-120.295 -374.778)"><path d="M190.409,394.673a14.39,14.39,0,1,1,0,28.78h-34.93a9.766,9.766,0,0,0,.053,19.532h36.487a33.923,33.923,0,1,0,0-67.846H140.937v19.533Z" fill="#adb5bd"/><path d="M155.828,447.578a14.39,14.39,0,1,1,0-28.78h34.93a9.766,9.766,0,0,0-.052-19.532H154.218a33.923,33.923,0,1,0,0,67.846H205.3V447.578Z" fill="#ff6601"/><path d="M265.429,375.289H246.1V408.9h19.331c19.934,0,22.548-.981,22.548-16.668v-.277C287.977,376.268,285.363,375.289,265.429,375.289Zm11.954,17.04c0,8.635-.707,8.916-11.9,8.916h-9.245v-18.3h9.245c11.2,0,11.9.283,11.9,8.916Z" fill="#adb5bd"/><rect width="10.135" height="33.61" transform="translate(293.58 375.289)" fill="#adb5bd"/><path d="M347.138,382.766v-7.477h-37.82V408.9h37.82v-7.477H319.452v-5.776H341.64v-7.3H319.452v-5.578Z" fill="#adb5bd"/><path d="M437.284,382.766v-7.477H399.463V408.9h37.821v-7.477H409.6v-5.776h22.188v-7.3H409.6v-5.578Z" fill="#adb5bd"/><path d="M453.02,401.423V375.289H442.886V408.9H475.3v-7.478Z" fill="#adb5bd"/><path d="M380.513,388.553,368,388.177c-5.739-.189-5.836-.792-5.836-3.36,0-2.661.7-2.661,14.47-2.661,2.574,0,11.577.136,16.014.23v-7.15c-4.36-.233-12.178-.458-17.181-.458-19.977,0-23.2.374-23.2,10.688,0,8.825,1.96,9.994,14.75,10.416l11.48.369c5.371.187,5.468.841,5.468,2.849,0,2.753-.235,2.895-12.935,2.895-5.851,0-12.8-.226-18.295-.415v7.384c4.967.224,13.755.447,18.338.447,20.357,0,22.784-.041,22.784-11.106C393.86,389.577,391.3,388.877,380.513,388.553Z" fill="#adb5bd"/><path d="M427,431.047h-8.355v6H427V441c-1.083.015-2.1.026-2.963.035h-4.783c-9.6,0-10.2-.241-10.2-7.64v-1.052c0-7.4.6-7.643,10.2-7.643h3.476c3.157.03,8.632.116,11.632.183V418.87c-3.667-.2-10.24-.388-14.446-.388H419.3c-17.083,0-19.324.84-19.324,14.283V433c0,13.441,2.241,14.284,19.324,14.284,0,0,1.473-.019,1.7-.019,4.23,0,10.842-.19,14.527-.387V431.047Z" fill="#ff6601"/><path d="M309.866,418.482v17.876L292,418.489l-8.685-.007v28.8H292v-17.86l17.869,17.845,8.686.016v-28.8Z" fill="#ff6601"/><path d="M278.512,424.89v-6.407H246.1v28.8h32.414v-6.406H254.784v-4.95H273.8v-6.26H254.784V424.89Z" fill="#ff6601"/><path d="M355.766,424.89v-6.407H323.354v28.8h32.411v-6.406H332.038v-4.95h19.018v-6.26H332.038V424.89Z" fill="#ff6601"/><path d="M396.435,447.468,388.75,438.3c5.876-.651,6.981-2.612,7.054-8.536,0-.108,0-1.024,0-1.37h0v-.123h0c0-.291,0-.975,0-1.069-.1-8.862-2.467-8.9-19.523-8.9-3.766,0-10.846.176-15.177.361h-.537v28.8h8.685v-8.843c1.583,0,6.751,0,7.029,0q1.59,0,3.011,0l7.42,8.842Zm-20.944-15.2-6.239,0v-7.521c2.08-.052,4.176-.087,6.239-.087,8.331,0,10.322.111,10.916,1.165a6.972,6.972,0,0,1,.323,2.558,6.184,6.184,0,0,1-.45,2.935C385.668,432.27,383.255,432.27,375.491,432.27Z" fill="#ff6601"/><path d="M475.178,418.47H465.6l-9.544,13.184-9.541-13.184h-9.577l14.774,20.416V447.3H460.4v-8.417Z" fill="#ff6601"/><path d="M249.757,463.855a3.51,3.51,0,0,1-.805-.081,1.18,1.18,0,0,1-.567-.316,1.462,1.462,0,0,1-.337-.645,4.275,4.275,0,0,1-.112-1.073v-3.511l-1.138-.149c-.078,0-.116-.046-.116-.129V456.9a.1.1,0,0,1,.116-.115h1.138v-1.25a.164.164,0,0,1,.021-.093.138.138,0,0,1,.1-.035l1.389-.2c.077,0,.115.031.115.1v1.474h1.885c.078,0,.11.038.1.115l-.18,1.21a.161.161,0,0,1-.041.093.149.149,0,0,1-.093.022h-1.667v3.428a1.651,1.651,0,0,0,.04.4.433.433,0,0,0,.128.229.479.479,0,0,0,.231.1,2.059,2.059,0,0,0,.353.025c.108,0,.233,0,.374-.014s.266-.019.374-.032a.092.092,0,0,1,.122.1l.09,1.085a.151.151,0,0,1-.017.1.159.159,0,0,1-.087.049,6,6,0,0,1-.646.108A6.4,6.4,0,0,1,249.757,463.855Z" fill="#adb5bd"/><path d="M261.7,463.678a.1.1,0,0,1-.117-.119v-3.651a5.359,5.359,0,0,0-.051-.8,1.155,1.155,0,0,0-.205-.535.885.885,0,0,0-.432-.3,2.358,2.358,0,0,0-.726-.092,4.148,4.148,0,0,0-.789.08,2.922,2.922,0,0,0-.723.235v5.06a.1.1,0,0,1-.115.119h-1.389a.105.105,0,0,1-.119-.119v-10.07a.114.114,0,0,1,.119-.129l1.389-.194c.077,0,.115.03.115.1v3.9a3.8,3.8,0,0,1,.963-.4,4.272,4.272,0,0,1,1.133-.147,3.491,3.491,0,0,1,1.108.154,1.7,1.7,0,0,1,.763.507,2.285,2.285,0,0,1,.439.931,6.133,6.133,0,0,1,.143,1.423v3.923a.1.1,0,0,1-.116.119Z" fill="#adb5bd"/><path d="M272.262,463.855a5.256,5.256,0,0,1-1.482-.181,2.239,2.239,0,0,1-.994-.583,2.368,2.368,0,0,1-.555-1.025,5.693,5.693,0,0,1-.174-1.515v-.65a5.42,5.42,0,0,1,.172-1.467,2.344,2.344,0,0,1,.545-1.018,2.267,2.267,0,0,1,.975-.6,4.743,4.743,0,0,1,1.46-.2,4.81,4.81,0,0,1,1.46.193,2.278,2.278,0,0,1,.979.588,2.353,2.353,0,0,1,.551,1,5.208,5.208,0,0,1,.174,1.435,4.572,4.572,0,0,1-.042.638c-.028.188-.053.325-.073.41a.152.152,0,0,1-.04.074.125.125,0,0,1-.081.021l-4.473.013a2.7,2.7,0,0,0,.139.728,1.007,1.007,0,0,0,.31.446,1.156,1.156,0,0,0,.51.226,4,4,0,0,0,.747.06c.385,0,.765-.006,1.135-.02s.77-.039,1.194-.083c.076,0,.117.032.121.1l.091,1.08a.119.119,0,0,1-.111.138q-.609.087-1.225.136C273.168,463.839,272.727,463.855,272.262,463.855Zm1.646-4.167a3.893,3.893,0,0,0-.148-.786,1.3,1.3,0,0,0-.3-.514,1.073,1.073,0,0,0-.5-.283,2.714,2.714,0,0,0-.756-.088,2.376,2.376,0,0,0-.742.1.992.992,0,0,0-.476.306,1.23,1.23,0,0,0-.256.545,4.068,4.068,0,0,0-.083.82Z" fill="#adb5bd"/><path d="M291.717,463.855a5.246,5.246,0,0,1-1.48-.181,2.25,2.25,0,0,1-.994-.583,2.309,2.309,0,0,1-.556-1.025,5.6,5.6,0,0,1-.176-1.515v-.65a5.457,5.457,0,0,1,.173-1.467,2.373,2.373,0,0,1,.543-1.018,2.317,2.317,0,0,1,.977-.6,5.587,5.587,0,0,1,2.919,0,2.292,2.292,0,0,1,.983.588,2.393,2.393,0,0,1,.549,1,5.247,5.247,0,0,1,.174,1.435,4.423,4.423,0,0,1-.042.638c-.029.188-.054.325-.075.41a.137.137,0,0,1-.038.074.129.129,0,0,1-.083.021l-4.471.013a2.748,2.748,0,0,0,.138.728,1.046,1.046,0,0,0,.308.446,1.183,1.183,0,0,0,.514.226,3.927,3.927,0,0,0,.743.06c.386,0,.766-.006,1.136-.02s.769-.039,1.2-.083a.1.1,0,0,1,.122.1l.088,1.08a.119.119,0,0,1-.108.138c-.409.058-.817.1-1.227.136S292.183,463.855,291.717,463.855Zm1.646-4.167a3.964,3.964,0,0,0-.148-.786,1.282,1.282,0,0,0-.3-.514,1.076,1.076,0,0,0-.5-.283,2.741,2.741,0,0,0-.757-.088,2.4,2.4,0,0,0-.743.1.993.993,0,0,0-.476.306,1.249,1.249,0,0,0-.253.545,3.99,3.99,0,0,0-.084.82Z" fill="#adb5bd"/><path d="M305.261,463.678a.1.1,0,0,1-.116-.119v-3.69a4.179,4.179,0,0,0-.059-.772,1.243,1.243,0,0,0-.211-.525.9.9,0,0,0-.424-.3,2.24,2.24,0,0,0-.7-.092,3.977,3.977,0,0,0-.788.084,3.213,3.213,0,0,0-.744.238v5.053a.1.1,0,0,1-.115.119h-1.39c-.076,0-.114-.04-.114-.119v-6.778a.1.1,0,0,1,.114-.116H301.8a.18.18,0,0,1,.1.022.2.2,0,0,1,.058.088l.182.419a4.474,4.474,0,0,1,1.019-.419,4.416,4.416,0,0,1,1.2-.154,3.268,3.268,0,0,1,1.078.157,1.75,1.75,0,0,1,.75.5,2.293,2.293,0,0,1,.44.908,5.542,5.542,0,0,1,.145,1.364v4.005a.1.1,0,0,1-.118.119Z" fill="#adb5bd"/><path d="M315.821,463.855a5.263,5.263,0,0,1-1.481-.181,2.234,2.234,0,0,1-.991-.583,2.332,2.332,0,0,1-.558-1.025,5.78,5.78,0,0,1-.173-1.515v-.65a5.679,5.679,0,0,1,.169-1.467,2.411,2.411,0,0,1,.547-1.018,2.275,2.275,0,0,1,.974-.6,5.587,5.587,0,0,1,2.919,0,2.269,2.269,0,0,1,.983.588,2.36,2.36,0,0,1,.549,1,5.167,5.167,0,0,1,.175,1.435,4.415,4.415,0,0,1-.043.638c-.027.188-.052.325-.073.41a.144.144,0,0,1-.039.074.131.131,0,0,1-.083.021l-4.47.013a2.524,2.524,0,0,0,.138.728,1.03,1.03,0,0,0,.309.446,1.164,1.164,0,0,0,.512.226,3.957,3.957,0,0,0,.745.06c.385,0,.765-.006,1.135-.02s.768-.039,1.193-.083c.077,0,.12.032.125.1l.086,1.08a.119.119,0,0,1-.108.138q-.61.087-1.223.136T315.821,463.855Zm1.647-4.167a3.964,3.964,0,0,0-.148-.786,1.3,1.3,0,0,0-.3-.514,1.073,1.073,0,0,0-.5-.283,2.707,2.707,0,0,0-.755-.088,2.425,2.425,0,0,0-.746.1,1,1,0,0,0-.473.306,1.263,1.263,0,0,0-.256.545,4.066,4.066,0,0,0-.083.82Z" fill="#adb5bd"/><path d="M324.819,463.678a.1.1,0,0,1-.115-.119v-6.778a.1.1,0,0,1,.115-.116h1.08a.177.177,0,0,1,.1.022.206.206,0,0,1,.059.088l.174.393a1.731,1.731,0,0,1,.433-.266,2.877,2.877,0,0,1,.5-.17,3.914,3.914,0,0,1,.508-.087c.167-.015.327-.024.472-.024a2.386,2.386,0,0,1,.353.02.151.151,0,0,1,.1.04.134.134,0,0,1,.017.094l-.092,1.415c0,.08-.045.116-.122.1-.049-.005-.1-.008-.158-.01s-.117,0-.181,0a6.486,6.486,0,0,0-.921.061,3.435,3.435,0,0,0-.812.227v4.991c0,.079-.036.119-.112.119Z" fill="#adb5bd"/><path d="M336.271,466.752c-.145,0-.295,0-.454-.011s-.31-.015-.47-.028-.316-.03-.466-.052-.3-.045-.429-.07a.106.106,0,0,1-.108-.143l.089-1.08c0-.076.044-.107.121-.1.119.021.241.038.379.053s.269.027.4.035.268.015.4.02.244.007.347.007a6.851,6.851,0,0,0,1.1-.074,1.488,1.488,0,0,0,.681-.268.968.968,0,0,0,.348-.527,3.067,3.067,0,0,0,.1-.856,5.051,5.051,0,0,1-.6.1,6.9,6.9,0,0,1-.76.037,6.1,6.1,0,0,1-1.527-.162,2.148,2.148,0,0,1-.987-.538,2.125,2.125,0,0,1-.533-.979,5.766,5.766,0,0,1-.161-1.477v-.889a6.031,6.031,0,0,1,.156-1.476,2.064,2.064,0,0,1,.538-.971,2.213,2.213,0,0,1,1.012-.531,6.6,6.6,0,0,1,1.586-.16c.219,0,.448.005.685.014s.477.02.719.036.475.037.707.058.455.048.669.079a.119.119,0,0,1,.091.034.134.134,0,0,1,.025.094v6.675a4.452,4.452,0,0,1-.234,1.568,2.162,2.162,0,0,1-.7.96,2.7,2.7,0,0,1-1.143.479A8.3,8.3,0,0,1,336.271,466.752Zm.735-8.742a3.074,3.074,0,0,0-.871.1,1.024,1.024,0,0,0-.52.329,1.3,1.3,0,0,0-.25.609,5.66,5.66,0,0,0-.064.934v.473a5.4,5.4,0,0,0,.064.909,1.223,1.223,0,0,0,.25.591,1.036,1.036,0,0,0,.525.318,3.252,3.252,0,0,0,.885.1c.092,0,.2,0,.316-.006s.232-.011.347-.019.227-.02.333-.033a2.483,2.483,0,0,0,.286-.051v-4.2c-.187-.017-.394-.03-.623-.039S337.228,458.01,337.006,458.01Z" fill="#adb5bd"/><path d="M346.273,466.752c-.136,0-.287-.008-.451-.023a3.374,3.374,0,0,1-.436-.068.129.129,0,0,1-.088-.043.116.116,0,0,1-.008-.093l.16-1.137a.105.105,0,0,1,.138-.1c.1.013.2.024.306.034a2.77,2.77,0,0,0,.311.017,3.9,3.9,0,0,0,.768-.063,1.23,1.23,0,0,0,.527-.251,1.491,1.491,0,0,0,.381-.508,6.848,6.848,0,0,0,.337-.843.4.4,0,0,1-.086-.04.875.875,0,0,1-.188-.172,2.443,2.443,0,0,1-.274-.395,4.36,4.36,0,0,1-.322-.693l-2.1-5.48c-.026-.073,0-.109.077-.109h1.6a.167.167,0,0,1,.1.021.247.247,0,0,1,.056.088l1.323,3.872c.039.116.078.23.12.348s.078.225.11.326l.082.276c.025.077.042.137.055.176l1.286-5a.148.148,0,0,1,.042-.088.178.178,0,0,1,.1-.021h1.6c.073,0,.1.036.084.109l-2.292,7.306a7.843,7.843,0,0,1-.494,1.238,2.381,2.381,0,0,1-.629.783,2.218,2.218,0,0,1-.893.407A5.963,5.963,0,0,1,346.273,466.752Z" fill="#adb5bd"/><path d="M367.851,463.855a5.246,5.246,0,0,1-1.48-.181,2.239,2.239,0,0,1-.994-.583,2.338,2.338,0,0,1-.555-1.025,5.819,5.819,0,0,1-.174-1.515v-.65a5.636,5.636,0,0,1,.169-1.467,2.411,2.411,0,0,1,.547-1.018,2.261,2.261,0,0,1,.975-.6,5.595,5.595,0,0,1,2.921,0,2.291,2.291,0,0,1,.981.588,2.35,2.35,0,0,1,.549,1,5.2,5.2,0,0,1,.177,1.435,4.568,4.568,0,0,1-.043.638c-.03.188-.054.325-.077.41a.136.136,0,0,1-.038.074.133.133,0,0,1-.084.021l-4.468.013a2.6,2.6,0,0,0,.137.728,1.02,1.02,0,0,0,.308.446,1.181,1.181,0,0,0,.511.226,3.994,3.994,0,0,0,.747.06c.387,0,.764-.006,1.137-.02s.766-.039,1.193-.083a.1.1,0,0,1,.12.1l.091,1.08a.12.12,0,0,1-.109.138q-.613.087-1.226.136T367.851,463.855Zm1.644-4.167a3.717,3.717,0,0,0-.144-.786,1.292,1.292,0,0,0-.3-.514,1.083,1.083,0,0,0-.5-.283,2.727,2.727,0,0,0-.757-.088,2.4,2.4,0,0,0-.743.1,1.007,1.007,0,0,0-.476.306,1.273,1.273,0,0,0-.254.545,4.141,4.141,0,0,0-.083.82Z" fill="#adb5bd"/><path d="M378.329,463.678a.166.166,0,0,1-.1-.024.211.211,0,0,1-.054-.088L375.98,456.9c-.025-.073,0-.109.077-.109h1.564a.122.122,0,0,1,.149.109l1.576,5.37,1.587-5.37a.168.168,0,0,1,.048-.088.175.175,0,0,1,.1-.021h1.563c.079,0,.1.036.079.109l-2.208,6.668a.221.221,0,0,1-.055.088.161.161,0,0,1-.1.024Z" fill="#adb5bd"/><path d="M391.062,463.855a5.258,5.258,0,0,1-1.479-.181,2.248,2.248,0,0,1-.995-.583,2.369,2.369,0,0,1-.555-1.025,5.776,5.776,0,0,1-.174-1.515v-.65a5.634,5.634,0,0,1,.169-1.467,2.434,2.434,0,0,1,.548-1.018,2.288,2.288,0,0,1,.974-.6,5.595,5.595,0,0,1,2.921,0,2.285,2.285,0,0,1,.981.588,2.339,2.339,0,0,1,.549,1,5.128,5.128,0,0,1,.176,1.435,4.419,4.419,0,0,1-.043.638,3.9,3.9,0,0,1-.074.41.151.151,0,0,1-.038.074.141.141,0,0,1-.086.021l-4.469.013a2.553,2.553,0,0,0,.14.728,1,1,0,0,0,.308.446,1.169,1.169,0,0,0,.512.226,3.987,3.987,0,0,0,.747.06c.386,0,.761-.006,1.133-.02s.768-.039,1.193-.083c.076,0,.118.032.122.1l.091,1.08a.121.121,0,0,1-.111.138q-.609.087-1.225.136T391.062,463.855Zm1.649-4.167a4.035,4.035,0,0,0-.149-.786,1.25,1.25,0,0,0-.3-.514,1.068,1.068,0,0,0-.5-.283,2.734,2.734,0,0,0-.758-.088,2.382,2.382,0,0,0-.741.1,1.011,1.011,0,0,0-.479.306,1.319,1.319,0,0,0-.252.545,4.061,4.061,0,0,0-.084.82Z" fill="#adb5bd"/><path d="M400.06,463.678a.1.1,0,0,1-.116-.119v-6.778a.1.1,0,0,1,.116-.116h1.081a.174.174,0,0,1,.1.022.189.189,0,0,1,.059.088l.173.393a1.7,1.7,0,0,1,.434-.266,2.8,2.8,0,0,1,.494-.17,3.974,3.974,0,0,1,.506-.087c.173-.015.33-.024.478-.024a2.425,2.425,0,0,1,.352.02.137.137,0,0,1,.093.04.14.14,0,0,1,.016.094l-.09,1.415c0,.08-.043.116-.122.1-.051-.005-.1-.008-.157-.01s-.115,0-.183,0a6.49,6.49,0,0,0-.922.061,3.419,3.419,0,0,0-.81.227v4.991a.1.1,0,0,1-.116.119Z" fill="#adb5bd"/><path d="M409.516,466.752c-.137,0-.289-.008-.45-.023a3.425,3.425,0,0,1-.439-.068.135.135,0,0,1-.09-.043.121.121,0,0,1-.008-.093l.162-1.137a.1.1,0,0,1,.137-.1c.1.013.2.024.309.034a2.731,2.731,0,0,0,.308.017,3.9,3.9,0,0,0,.768-.063,1.224,1.224,0,0,0,.527-.251,1.457,1.457,0,0,0,.383-.508,7.4,7.4,0,0,0,.335-.843.48.48,0,0,1-.086-.04.926.926,0,0,1-.187-.172,2.892,2.892,0,0,1-.275-.395,4.46,4.46,0,0,1-.321-.693l-2.1-5.48c-.026-.073,0-.109.075-.109h1.6a.17.17,0,0,1,.1.021.2.2,0,0,1,.054.088l1.325,3.872c.04.116.079.23.119.348s.077.225.11.326.062.2.086.276.04.137.055.176l1.284-5a.143.143,0,0,1,.043-.088.166.166,0,0,1,.1-.021h1.6c.071,0,.1.036.082.109l-2.288,7.306a7.559,7.559,0,0,1-.5,1.238,2.392,2.392,0,0,1-.628.783,2.222,2.222,0,0,1-.894.407A5.95,5.95,0,0,1,409.516,466.752Z" fill="#adb5bd"/><path d="M421.7,463.678a.154.154,0,0,1-.1-.024.139.139,0,0,1-.043-.088l-1.615-6.668c-.017-.073.012-.109.091-.109h1.506a.171.171,0,0,1,.1.021.183.183,0,0,1,.042.094l.971,4.721c0,.021.014.076.029.16s.03.178.044.274.027.183.039.262a.345.345,0,0,0,.024.113s.012-.02.02-.067.025-.1.043-.177.038-.155.056-.249.047-.194.071-.3l1.37-4.746a.192.192,0,0,1,.048-.088.185.185,0,0,1,.1-.021h1.2a.181.181,0,0,1,.1.021.212.212,0,0,1,.048.088l1.351,4.766c.026.094.049.187.069.28s.041.174.057.246.032.133.045.177.022.067.026.067a.343.343,0,0,0,.029-.113c.011-.079.026-.165.042-.258s.028-.184.041-.268.021-.134.026-.151l.982-4.74a.169.169,0,0,1,.04-.094.182.182,0,0,1,.1-.021h1.506c.077,0,.106.036.089.109l-1.627,6.668a.156.156,0,0,1-.043.088.163.163,0,0,1-.1.024h-1.882a.157.157,0,0,1-.1-.024.185.185,0,0,1-.056-.088l-1.176-3.55c-.022-.068-.043-.145-.062-.231s-.036-.166-.055-.241-.03-.138-.038-.188a.26.26,0,0,0-.018-.074c-.007,0-.012.026-.02.077s-.021.117-.039.191-.036.154-.056.237a1.3,1.3,0,0,1-.066.229l-1.179,3.55a.192.192,0,0,1-.052.088.162.162,0,0,1-.1.024Z" fill="#adb5bd"/><path d="M440.476,463.678c-.075,0-.113-.04-.113-.119v-3.651a5.2,5.2,0,0,0-.053-.8,1.167,1.167,0,0,0-.208-.535.873.873,0,0,0-.428-.3,2.383,2.383,0,0,0-.727-.092,4.138,4.138,0,0,0-.788.08,2.925,2.925,0,0,0-.725.235v5.06a.1.1,0,0,1-.116.119H435.93a.1.1,0,0,1-.117-.119v-10.07a.113.113,0,0,1,.117-.129l1.388-.194c.077,0,.116.03.116.1v3.9a3.835,3.835,0,0,1,.964-.4,4.277,4.277,0,0,1,1.133-.147,3.506,3.506,0,0,1,1.109.154,1.672,1.672,0,0,1,.758.507,2.277,2.277,0,0,1,.444.931,6.091,6.091,0,0,1,.141,1.423v3.923a.1.1,0,0,1-.115.119Z" fill="#adb5bd"/><path d="M451.037,463.855a5.231,5.231,0,0,1-1.478-.181,2.232,2.232,0,0,1-.995-.583,2.338,2.338,0,0,1-.555-1.025,5.692,5.692,0,0,1-.174-1.515v-.65a5.589,5.589,0,0,1,.17-1.467,2.408,2.408,0,0,1,.545-1.018,2.283,2.283,0,0,1,.976-.6,4.747,4.747,0,0,1,1.46-.2,4.8,4.8,0,0,1,1.461.193,2.273,2.273,0,0,1,.981.588,2.371,2.371,0,0,1,.549,1,5.205,5.205,0,0,1,.175,1.435,4.28,4.28,0,0,1-.043.638c-.028.188-.051.325-.074.41a.126.126,0,0,1-.04.074.129.129,0,0,1-.083.021l-4.469.013a2.673,2.673,0,0,0,.137.728,1.031,1.031,0,0,0,.309.446,1.186,1.186,0,0,0,.511.226,3.964,3.964,0,0,0,.745.06c.387,0,.767-.006,1.138-.02s.767-.039,1.193-.083a.1.1,0,0,1,.121.1l.09,1.08a.119.119,0,0,1-.109.138c-.407.058-.814.1-1.225.136S451.506,463.855,451.037,463.855Zm1.646-4.167a4.057,4.057,0,0,0-.145-.786,1.261,1.261,0,0,0-.3-.514,1.061,1.061,0,0,0-.5-.283,2.737,2.737,0,0,0-.757-.088,2.4,2.4,0,0,0-.743.1.994.994,0,0,0-.475.306,1.217,1.217,0,0,0-.254.545,3.916,3.916,0,0,0-.085.82Z" fill="#adb5bd"/><path d="M460.035,463.678a.1.1,0,0,1-.115-.119v-6.778a.1.1,0,0,1,.115-.116h1.081a.136.136,0,0,1,.161.11l.172.393a1.749,1.749,0,0,1,.436-.266,2.837,2.837,0,0,1,.495-.17,3.972,3.972,0,0,1,.508-.087c.17-.015.325-.024.473-.024a2.446,2.446,0,0,1,.354.02.142.142,0,0,1,.093.04.129.129,0,0,1,.016.094l-.092,1.415c0,.08-.046.116-.122.1-.051-.005-.1-.008-.157-.01s-.114,0-.184,0a6.5,6.5,0,0,0-.919.061,3.406,3.406,0,0,0-.81.227v4.991c0,.079-.037.119-.115.119Z" fill="#adb5bd"/><path d="M472.118,463.855a5.263,5.263,0,0,1-1.479-.181,2.221,2.221,0,0,1-.992-.583,2.329,2.329,0,0,1-.556-1.025,5.737,5.737,0,0,1-.173-1.515v-.65a5.589,5.589,0,0,1,.17-1.467,2.408,2.408,0,0,1,.545-1.018,2.272,2.272,0,0,1,.973-.6,5.595,5.595,0,0,1,2.921,0,2.265,2.265,0,0,1,.982.588,2.385,2.385,0,0,1,.551,1,5.211,5.211,0,0,1,.173,1.435,4.28,4.28,0,0,1-.043.638c-.026.188-.051.325-.072.41a.145.145,0,0,1-.04.074.133.133,0,0,1-.084.021l-4.47.013a2.784,2.784,0,0,0,.139.728,1.014,1.014,0,0,0,.309.446,1.168,1.168,0,0,0,.509.226,4,4,0,0,0,.748.06c.385,0,.764-.006,1.135-.02s.769-.039,1.193-.083c.077,0,.12.032.124.1l.089,1.08a.12.12,0,0,1-.11.138q-.609.087-1.223.136C473.025,463.839,472.587,463.855,472.118,463.855Zm1.648-4.167a3.9,3.9,0,0,0-.148-.786,1.236,1.236,0,0,0-.3-.514,1.068,1.068,0,0,0-.5-.283,2.714,2.714,0,0,0-.756-.088,2.388,2.388,0,0,0-.742.1,1,1,0,0,0-.476.306,1.251,1.251,0,0,0-.255.545,4.157,4.157,0,0,0-.081.82Z" fill="#adb5bd"/></g></svg>
