<svg version="1.1" id="Layer_2" xmlns="http://www.w3.org/2000/svg" xmlns:xlink="http://www.w3.org/1999/xlink" x="0px" y="0px"
	 width="180px" height="48.977px" viewBox="0 0 180 48.977" enable-background="new 0 0 180 48.977" xml:space="preserve">
<g>
	<path fill="gray" d="M166.401,0v2.452c6.146,0,11.145,5,11.145,11.144c0,6.146-4.998,11.145-11.145,11.145
		c-6.144,0-11.144-5-11.144-11.145c0-2.472,0.792-4.812,2.291-6.769l-1.946-1.493c-1.83,2.389-2.797,5.246-2.797,8.262
		c0,7.497,6.1,13.597,13.596,13.597c7.497,0,13.599-6.1,13.599-13.597S173.898,0,166.401,0z"/>
	<rect x="33.572" y="0.818" fill="gray" width="2.451" height="20.305"/>
	<polygon fill="gray" points="2.452,3.286 15.429,3.286 15.429,0.833 0,0.833 0,26.375 2.452,26.375 2.452,17.837 20.683,17.837 
		20.683,15.384 2.452,15.384 	"/>
	<path fill="gray" d="M134.594,0.833h-13.442v25.542h2.453v-8.538h10.998c0.182,0,0.358-0.016,0.537-0.028l1.903,3.804
		l2.192-1.096l-1.623-3.247c3.181-1.227,5.449-4.324,5.449-7.953C143.062,4.638,139.264,0.833,134.594,0.833z M134.603,15.384
		h-10.998V3.286h10.989c3.317,0,6.015,2.705,6.015,6.031C140.608,12.662,137.915,15.384,134.603,15.384z"/>
	<path fill="gray" d="M96.069,0.269L83.018,26.375h2.742l4.27-8.538h14.275l1.917,3.834l2.194-1.097L98.264,0.269H96.069z
		 M91.254,15.384L97.167,3.56l5.912,11.824H91.254z"/>
	<path fill="gray" d="M41.681,43.396c0.769,0,1.479,0.385,1.898,1.029l0.881-0.574c-0.615-0.943-1.653-1.506-2.779-1.506
		c-1.828,0-3.315,1.486-3.315,3.315c0,1.829,1.487,3.316,3.315,3.316c1.112,0,2.145-0.554,2.762-1.479l-0.875-0.583
		c-0.422,0.634-1.127,1.012-1.887,1.012c-1.249,0-2.266-1.016-2.266-2.265S40.432,43.396,41.681,43.396z"/>
	<rect x="110.297" y="42.533" fill="gray" width="1.051" height="6.256"/>
	<polygon fill="gray" points="81.036,48.789 86.164,48.789 86.164,47.737 82.086,47.737 82.086,46.186 86.164,46.186 
		86.164,45.135 82.086,45.135 82.086,43.584 86.164,43.584 86.164,42.533 81.036,42.533 	"/>
	<polygon fill="gray" points="66.431,43.584 68.907,43.584 68.907,48.789 69.958,48.789 69.958,43.584 72.434,43.584 
		72.434,42.533 66.431,42.533 	"/>
	<path fill="gray" d="M101.22,44.768c0-1.232-1.001-2.235-2.231-2.235h-3.404v6.256h1.052v-1.775h2.339l0.888,1.775h1.175
		l-1.02-2.04C100.729,46.374,101.22,45.631,101.22,44.768z M98.99,45.961h-2.354v-2.378h2.353c0.65,0,1.181,0.532,1.181,1.185
		C100.169,45.427,99.641,45.961,98.99,45.961z"/>
	<path fill="gray" d="M55.616,42.53l-3.128,6.258h1.176l0.538-1.076h3.77l0.538,1.076h1.176l-3.13-6.258H55.616z M54.727,46.661
		l1.36-2.72l1.359,2.72H54.727z"/>
	<polygon fill="gray" points="125.127,47.11 121.96,42.533 120.797,42.533 120.797,48.789 121.849,48.789 121.849,44.218 
		125.01,48.789 126.178,48.789 126.178,42.534 125.127,42.534 	"/>
	<path fill="gray" d="M138.896,45.806v1.05h1.43c-0.404,0.652-1.125,1.068-1.927,1.068c-1.25,0-2.266-1.015-2.266-2.265
		c0-1.249,1.016-2.265,2.266-2.265c0.769,0,1.479,0.385,1.901,1.03l0.879-0.575c-0.615-0.943-1.655-1.506-2.78-1.506
		c-1.828,0-3.316,1.488-3.316,3.316c0,1.829,1.488,3.316,3.316,3.316c1.439,0,2.695-0.917,3.145-2.259h-0.002
		c0.098-0.288,0.153-0.594,0.168-0.911H138.896z"/>
	<path fill="gray" d="M64.51,15.383v1.029v1.418h8.113c-1.69,4.138-5.727,6.911-10.314,6.911c-6.146,0-11.145-5-11.145-11.145
		c0-6.145,4.999-11.144,11.145-11.144V0c-7.498,0-13.597,6.099-13.597,13.596s6.099,13.597,13.597,13.597
		c6.271,0,11.699-4.245,13.2-10.325l0.004-0.014h-0.001c0.119-0.48,0.209-0.971,0.274-1.47H64.51z"/>
</g>
</svg>
