<svg xmlns="http://www.w3.org/2000/svg" width="287.531" height="110.277" viewBox="0 0 287.531 110.277"><path fill="#004282" d="M0 0H287.531V77.072H0z"/><path d="M49.356,62.249l9.928-29.79v29.79h14.824V14.823H54.099	l-9.635,23.715L34.83,14.823H14.82v47.426h14.823v-29.79l10.001,29.79 M208.639,43.813c4.621-0.37,9.232-3.518,9.232-8.688V24.455	v-1.037c-0.536-5.343-4.547-8.23-9.299-8.61h-38.13l0.003,47.441h14.82V43.813h5.897l9.635,18.436h17.045l-11.473-18.436H208.639z M204.533,31.511c0,1.027-0.256,1.928-2.097,1.928h-17.17v-9.31h17.191c2.091,0,2.075,1.366,2.075,2.222V31.511z M118.569,24.161	v-9.338H80.034v47.426l39.048-0.01l0.013-9.328H94.893l0.003-10.154h23.673v-9.315H94.896v-9.28H118.569z M137.097,24.161h-14.08	v-9.338h42.98v9.338h-14.08v38.088h-14.82V24.161z M264.56,14.823h-31.498c-4.729,0.383-8.728,2.783-9.261,8.15v30.682	c0.533,5.367,4.531,8.214,9.261,8.594h31.498c4.729-0.38,8.729-3.227,9.262-8.594V22.974	C273.289,17.606,269.29,15.206,264.56,14.823z M259.001,50.792c-0.067,0.533-0.269,1.938-2.097,2.119h-16.053	c-1.828-0.182-2.163-1.586-2.23-2.119v-24.78c0.067-0.532,0.322-1.669,2.147-1.851h16.142c1.829,0.182,2.023,1.318,2.091,1.851	V50.792z" fill-rule="evenodd" clip-rule="evenodd" fill="#004282"/><path fill="#004282" d="M0 0H287.531V77.072H0z"/><path d="M49.356,62.249l9.928-29.79v29.79h14.824V14.823H54.099	l-9.635,23.715L34.83,14.823H14.82v47.426h14.823v-29.79l10.001,29.79 M208.639,43.813c4.621-0.37,9.232-3.518,9.232-8.688V24.455	v-1.037c-0.536-5.343-4.547-8.23-9.299-8.61h-38.13l0.003,47.441h14.82V43.813h5.897l9.635,18.436h17.045l-11.473-18.436H208.639z M204.533,31.511c0,1.027-0.256,1.928-2.097,1.928h-17.17v-9.31h17.191c2.091,0,2.075,1.366,2.075,2.222V31.511z M118.569,24.161	v-9.338H80.034v47.426l39.048-0.01l0.013-9.328H94.893l0.003-10.154h23.673v-9.315H94.896v-9.28H118.569z M137.097,24.161h-14.08	v-9.338h42.98v9.338h-14.08v38.088h-14.82V24.161z M264.56,14.823h-31.498c-4.729,0.383-8.728,2.783-9.261,8.15v30.682	c0.533,5.367,4.531,8.214,9.261,8.594h31.498c4.729-0.38,8.729-3.227,9.262-8.594V22.974	C273.289,17.606,269.29,15.206,264.56,14.823z M259.001,50.792c-0.067,0.533-0.269,1.938-2.097,2.119h-16.053	c-1.828-0.182-2.163-1.586-2.23-2.119v-24.78c0.067-0.532,0.322-1.669,2.147-1.851h16.142c1.829,0.182,2.023,1.318,2.091,1.851	V50.792z" fill-rule="evenodd" clip-rule="evenodd" fill="#ffe600"/><path d="M81.712,100.139v0.432c0,1.727-0.785,1.844-2.413,1.844c-2.352,0-2.451-0.842-2.451-3.037v-2.295	c0-2.1,0.217-2.786,2.451-2.786c1.334,0,2.256,0.099,2.394,1.414v0.567h4.04V95.71c-0.08-4.414-1.962-4.825-6-4.825	c-4.314,0-6.922,0.708-6.922,5.568v3.804c0,5.374,2.92,5.569,6.922,5.569c1.704,0,3.332,0.02,4.666-1.079	c1.333-1.116,1.353-2.568,1.353-4.177v-0.432" fill="#004282"/><path d="M94.564,105.708h3.373v-6.431c0-3.549-1.452-3.979-4.902-3.979	c-2.409,0-4.745-0.019-4.745,3.176h3.373c0-0.923,0.53-1.117,1.372-1.117c1.471,0,1.529,0.606,1.529,1.567v1.627h-0.156	c-0.371-1.174-1.842-1.155-2.802-1.155c-2.432,0-3.728,0.763-3.728,3.236c0,2.626,1.373,3.194,3.728,3.194	c1.174,0,2.707-0.236,2.958-1.646h0.118 M92.723,101.454c1.098,0,1.841,0.08,1.841,0.941c0,1.079-0.431,1.254-1.841,1.254	c-0.511,0-1.471,0-1.471-1.117C91.251,101.591,91.899,101.454,92.723,101.454z" fill-rule="evenodd" clip-rule="evenodd" fill="#004282"/><path d="M109.911 98.336v-.491c0-2.527-2.665-2.547-4.547-2.547-2.863 0-5.039.058-5.039 3.373 0 2.097.763 3.058 5.039 3.058 1.174 0 1.765 0 1.765 1.018 0 .805-.236.903-1.765.903-.823 0-1.669 0-1.669-1.158h-3.37c0 3.396 2.371 3.335 5.039 3.335 2.706 0 5.039-.45 5.039-3.473 0-2.881-1.551-3.076-5.039-3.156-1.727-.038-1.765-.389-1.765-.899 0-.609 0-.823 1.765-.823.53 0 1.254 0 1.372.861M116.201 91.003h-3.373v14.705h3.373v-5.668c0-1.254.255-2.154 1.765-2.154 1.098 0 1.373.488 1.392 1.491v6.331h3.373v-7.116c0-2.215-1.04-3.294-3.315-3.294-1.586 0-2.588.412-3.077 2.039h-.137" fill="#004282"/><path d="M145.423,105.708l1.745-2.097l-1.627-1.471	c0.232-0.45,0.393-0.961,0.393-1.434v-2.882h-3.118v1.944l-3.609-3.218c-0.488-0.449-0.785-0.784-0.785-1.452	c0-1.056,0.296-1.292,1.295-1.292c0.804,0,1.235,0.058,1.471,0.313c0.236,0.256,0.274,0.706,0.255,1.529h3.37v-0.744	c0.042-3.549-1.765-4.021-5.097-4.021c-3.255,0-4.902,0.571-4.902,3.941c0,1.216,0.195,1.688,1.117,2.492	c-2.234,0.038-2.607,1.979-2.607,3.842c0,4.273,2.626,4.666,6.392,4.666c1.608,0,3.373,0,4.353-1.334 M141.737,102.396	c-0.667,0.313-1.433,0.313-2.02,0.313c-1.784,0-2.783,0.038-2.783-1.94c0-0.728-0.042-1.646,0.9-1.745L141.737,102.396z" fill-rule="evenodd" clip-rule="evenodd" fill="#004282"/><path d="M165.449,100.139v0.432c0,1.727-0.785,1.844-2.413,1.844c-2.352,0-2.451-0.842-2.451-3.037v-2.295	c0-2.1,0.218-2.786,2.451-2.786c1.334,0,2.257,0.099,2.395,1.414v0.567h4.039V95.71c-0.079-4.414-1.962-4.825-5.999-4.825	c-4.315,0-6.922,0.708-6.922,5.568v3.804c0,5.374,2.92,5.569,6.922,5.569c1.704,0,3.331,0.02,4.665-1.079	c1.334-1.116,1.354-2.568,1.354-4.177v-0.432" fill="#004282"/><path d="M178.3,105.708h3.373v-6.431c0-3.549-1.452-3.979-4.902-3.979	c-2.412,0-4.745-0.019-4.745,3.176h3.373c0-0.923,0.53-1.117,1.372-1.117c1.472,0,1.529,0.606,1.529,1.567v1.627h-0.156	c-0.374-1.174-1.842-1.155-2.803-1.155c-2.432,0-3.728,0.763-3.728,3.236c0,2.626,1.373,3.194,3.728,3.194	c1.175,0,2.703-0.236,2.959-1.646h0.118 M176.458,101.454c1.098,0,1.842,0.08,1.842,0.941c0,1.079-0.432,1.254-1.842,1.254	c-0.511,0-1.471,0-1.471-1.117C174.988,101.591,175.635,101.454,176.458,101.454z" fill-rule="evenodd" clip-rule="evenodd" fill="#004282"/><path d="M190 99.903h3.041v-.802c0-1.883-.198-3.804-2.55-3.804-1.254 0-2.139.45-2.588 1.628h-.138v-1.51h-3.274v10.292h3.373v-6.175c0-.843.233-1.647 1.255-1.647.922 0 .881.805.881 1.529M200.801 99.903h3.038v-.802c0-1.883-.194-3.804-2.546-3.804-1.258 0-2.139.45-2.589 1.628h-.137v-1.51h-3.274v10.292h3.37v-6.175c0-.843.236-1.647 1.257-1.647.92 0 .881.805.881 1.529M215.721 95.416h-3.45l-1.666 8.371h-.041l-2.039-8.371h-3.53l3.061 10.292h1.842c-.058 1.178-.352 2.215-1.765 2.215-.195 0-.393-.02-.588-.038v2.332c.393.02.767.061 1.159.061 2.862 0 3.861-.96 4.429-3.666" fill="#004282"/></svg>